# xmcd
#
# Track frame offsets: 
#        150
#        11682
#        27935
#        44305
#        56030
#        72650
#        86410
#        103820
#        123737
#        137187
#
# Disc length: 2069 seconds
#
# Revision: 2
# Processed by: cddbd v1.5PL3 Copyright (c) Steve Scherf et al.
# Submitted via: ExactAudioCopy v0.95a3
#
DISCID=9108130a
DTITLE=Larry Stewart - Why Can't You
DYEAR=1996
DGENRE=Country
TTITLE0=They Ain't Made Enough Road
TTITLE1=Always A Woman
TTITLE2=That's What One Night Can Do
TTITLE3=There Goes The Neighborhood
TTITLE4=I've Got My Hands Full
TTITLE5=Shake, Rattle And Rollin' In The Country
TTITLE6=Why Can't You
TTITLE7=This Heart
TTITLE8=I'll Know When I Get There
TTITLE9=As Time Goes
EXTD=
EXTT0=
EXTT1=
EXTT2=
EXTT3=
EXTT4=
EXTT5=
EXTT6=
EXTT7=
EXTT8=
EXTT9=
PLAYORDER=
